{
    "asset" : {
        "generator" : "Khronos glTF Blender I/O v1.6.16",
        "version" : "2.0"
    },
    "scene" : 0,
    "scenes" : [
        {
            "name" : "Scene",
            "nodes" : [
                0
            ]
        }
    ],
    "nodes" : [
        {
            "mesh" : 0,
            "name" : "SM_Prop_Crate_01__5_",
            "rotation" : [
                0.7071068286895752,
                0,
                0,
                0.7071068286895752
            ],
            "scale" : [
                0.009999999776482582,
                0.009999999776482582,
                0.009999999776482582
            ]
        }
    ],
    "materials" : [
        {
            "doubleSided" : true,
            "emissiveFactor" : [
                1,
                1,
                1
            ],
            "emissiveTexture" : {
                "index" : 0
            },
            "name" : "PolygonDungeonRealms_Mat_01_A.001",
            "normalTexture" : {
                "index" : 1
            },
            "pbrMetallicRoughness" : {
                "baseColorTexture" : {
                    "index" : 2
                },
                "metallicFactor" : 0,
                "roughnessFactor" : 0.5527864098548889
            }
        }
    ],
    "meshes" : [
        {
            "name" : "Scene.034",
            "primitives" : [
                {
                    "attributes" : {
                        "POSITION" : 0,
                        "NORMAL" : 1,
                        "TEXCOORD_0" : 2
                    },
                    "indices" : 3,
                    "material" : 0
                }
            ]
        }
    ],
    "textures" : [
        {
            "sampler" : 0,
            "source" : 0
        },
        {
            "sampler" : 0,
            "source" : 1
        },
        {
            "sampler" : 0,
            "source" : 2
        }
    ],
    "images" : [
        {
            "mimeType" : "image/png",
            "name" : "Dungeons_2_Texture_Emission_01",
            "uri" : "Dungeons_2_Texture_Emission_01.png"
        },
        {
            "mimeType" : "image/png",
            "name" : "Dungeons_2_Texture_Normal_Map",
            "uri" : "Dungeons_2_Texture_Normal_Map.png"
        },
        {
            "mimeType" : "image/png",
            "name" : "Dungeons_2_Texture_01_A",
            "uri" : "Dungeons_2_Texture_01_A.png"
        }
    ],
    "accessors" : [
        {
            "bufferView" : 0,
            "componentType" : 5126,
            "count" : 1475,
            "max" : [
                55.1671142578125,
                55.16700744628906,
                0
            ],
            "min" : [
                -55.16717529296875,
                -55.16700744628906,
                -109.71317291259766
            ],
            "type" : "VEC3"
        },
        {
            "bufferView" : 1,
            "componentType" : 5126,
            "count" : 1475,
            "type" : "VEC3"
        },
        {
            "bufferView" : 2,
            "componentType" : 5126,
            "count" : 1475,
            "type" : "VEC2"
        },
        {
            "bufferView" : 3,
            "componentType" : 5123,
            "count" : 2700,
            "type" : "SCALAR"
        }
    ],
    "bufferViews" : [
        {
            "buffer" : 0,
            "byteLength" : 17700,
            "byteOffset" : 0
        },
        {
            "buffer" : 0,
            "byteLength" : 17700,
            "byteOffset" : 17700
        },
        {
            "buffer" : 0,
            "byteLength" : 11800,
            "byteOffset" : 35400
        },
        {
            "buffer" : 0,
            "byteLength" : 5400,
            "byteOffset" : 47200
        }
    ],
    "samplers" : [
        {
            "magFilter" : 9729,
            "minFilter" : 9987
        }
    ],
    "buffers" : [
        {
            "byteLength" : 52600,
            "uri" : "WoodBox.bin"
        }
    ]
}
